<?xml version="1.0"?>
<svg xmlns="http://www.w3.org/2000/svg" viewBox="0 0 512 512" width="512px" height="512px"><g><path d="m256 512c-140.96875 0-256-115.050781-256-256 0-140.96875 115.050781-256 256-256 140.96875 0 256 115.050781 256 256 0 140.96875-115.050781 256-256 256zm0-482c-124.617188 0-226 101.382812-226 226s101.382812 226 226 226 226-101.382812 226-226-101.382812-226-226-226zm0 0" data-original="#000000" class="active-path" data-old_color="#000000" fill="#8685EF"/><path d="m361 361h-210v-210h210zm-180-30h150v-150h-150zm0 0" data-original="#000000" class="active-path" data-old_color="#000000" fill="#8685EF"/></g> </svg>
